<svg width="31" height="30" viewBox="0 0 31 30" fill="none" xmlns="http://www.w3.org/2000/svg">
<path d="M0.756775 1.25457C0.756775 0.921834 0.888952 0.60273 1.12423 0.367453C1.3595 0.132177 1.67861 0 2.01134 0H2.94474C4.53385 0 5.48732 1.06889 6.03097 2.0625C6.39395 2.72492 6.65658 3.49271 6.86233 4.18857C6.91798 4.18418 6.97378 4.18195 7.0296 4.18188H27.9357C29.3241 4.18188 30.3277 5.51005 29.9463 6.84658L26.8885 17.5673C26.6144 18.5288 26.0344 19.3749 25.2363 19.9774C24.4383 20.5798 23.4657 20.9058 22.4658 20.9061H12.5162C11.5084 20.9061 10.5284 20.5752 9.72696 19.9641C8.92549 19.353 8.34689 18.4957 8.08009 17.5238L6.8088 12.8869L4.70113 5.78104L4.69945 5.76765C4.4385 4.8192 4.19428 3.93097 3.82962 3.26856C3.48002 2.62455 3.199 2.50913 2.94641 2.50913H2.01134C1.67861 2.50913 1.3595 2.37695 1.12423 2.14168C0.888952 1.9064 0.756775 1.5873 0.756775 1.25457ZM9.24265 12.278L10.4989 16.8597C10.7498 17.7663 11.5745 18.3969 12.5162 18.3969H22.4658C22.9203 18.3969 23.3624 18.2488 23.7252 17.9751C24.088 17.7013 24.3517 17.3168 24.4764 16.8798L27.382 6.69101H7.58997L9.21923 12.1894L9.24265 12.278Z" fill="#252525"/>
<path d="M14.9751 25.9278C14.9751 26.8151 14.6227 27.666 13.9953 28.2934C13.3679 28.9208 12.5169 29.2733 11.6296 29.2733C10.7423 29.2733 9.8914 28.9208 9.26399 28.2934C8.63659 27.666 8.28412 26.8151 8.28412 25.9278C8.28412 25.0405 8.63659 24.1896 9.26399 23.5622C9.8914 22.9347 10.7423 22.5823 11.6296 22.5823C12.5169 22.5823 13.3679 22.9347 13.9953 23.5622C14.6227 24.1896 14.9751 25.0405 14.9751 25.9278ZM12.466 25.9278C12.466 25.706 12.3779 25.4932 12.221 25.3364C12.0642 25.1795 11.8514 25.0914 11.6296 25.0914C11.4078 25.0914 11.1951 25.1795 11.0382 25.3364C10.8814 25.4932 10.7932 25.706 10.7932 25.9278C10.7932 26.1496 10.8814 26.3623 11.0382 26.5192C11.1951 26.676 11.4078 26.7642 11.6296 26.7642C11.8514 26.7642 12.0642 26.676 12.221 26.5192C12.3779 26.3623 12.466 26.1496 12.466 25.9278Z" fill="#252525"/>
<path d="M26.6851 25.9278C26.6851 26.8151 26.3326 27.666 25.7052 28.2934C25.0778 28.9208 24.2269 29.2733 23.3396 29.2733C22.4523 29.2733 21.6014 28.9208 20.974 28.2934C20.3466 27.666 19.9941 26.8151 19.9941 25.9278C19.9941 25.0405 20.3466 24.1896 20.974 23.5622C21.6014 22.9347 22.4523 22.5823 23.3396 22.5823C24.2269 22.5823 25.0778 22.9347 25.7052 23.5622C26.3326 24.1896 26.6851 25.0405 26.6851 25.9278ZM24.176 25.9278C24.176 25.706 24.0878 25.4932 23.931 25.3364C23.7741 25.1795 23.5614 25.0914 23.3396 25.0914C23.1178 25.0914 22.905 25.1795 22.7482 25.3364C22.5913 25.4932 22.5032 25.706 22.5032 25.9278C22.5032 26.1496 22.5913 26.3623 22.7482 26.5192C22.905 26.676 23.1178 26.7642 23.3396 26.7642C23.5614 26.7642 23.7741 26.676 23.931 26.5192C24.0878 26.3623 24.176 26.1496 24.176 25.9278Z" fill="#252525"/>
</svg>
