<svg width="12" height="16" viewBox="0 0 12 16" fill="none" xmlns="http://www.w3.org/2000/svg">
<path d="M11.3789 6.71399C11.3789 10.6515 6.12891 14.589 6.12891 14.589C6.12891 14.589 0.878906 10.6515 0.878906 6.71399C0.878906 5.3216 1.43203 3.98624 2.4166 3.00168C3.40116 2.01711 4.73652 1.46399 6.12891 1.46399C7.52129 1.46399 8.85665 2.01711 9.84122 3.00168C10.8258 3.98624 11.3789 5.3216 11.3789 6.71399V6.71399Z" stroke="#E8E8E8" stroke-linecap="round" stroke-linejoin="round"/>
<path d="M6.12891 8.68274C7.21622 8.68274 8.09766 7.8013 8.09766 6.71399C8.09766 5.62668 7.21622 4.74524 6.12891 4.74524C5.0416 4.74524 4.16016 5.62668 4.16016 6.71399C4.16016 7.8013 5.0416 8.68274 6.12891 8.68274Z" stroke="#E8E8E8" stroke-width="0.5" stroke-linecap="round" stroke-linejoin="round"/>
</svg>
