<svg width="13" height="12" viewBox="0 0 13 12" fill="none" xmlns="http://www.w3.org/2000/svg">
<path d="M12.3154 8.72233V10.3704C12.3161 10.5233 12.2827 10.6748 12.2175 10.815C12.1522 10.9551 12.0565 11.081 11.9365 11.1844C11.8165 11.2878 11.6748 11.3666 11.5205 11.4156C11.3662 11.4646 11.2027 11.4828 11.0405 11.469C9.24086 11.2854 7.51219 10.7077 5.99338 9.78256C4.58033 8.93914 3.3823 7.81382 2.48439 6.48652C1.49601 5.0534 0.880918 3.42175 0.688951 1.72374C0.674336 1.57183 0.693557 1.41872 0.745388 1.27417C0.797219 1.12962 0.880525 0.99679 0.990003 0.884138C1.09948 0.771486 1.23273 0.68148 1.38127 0.619851C1.52981 0.558222 1.69038 0.52632 1.85277 0.526176H3.60727C3.89109 0.523552 4.16624 0.617959 4.38144 0.7918C4.59665 0.965641 4.73721 1.20705 4.77693 1.47104C4.85098 1.99844 4.98832 2.51629 5.18631 3.01469C5.265 3.21131 5.28203 3.425 5.23539 3.63043C5.18874 3.83587 5.08038 4.02444 4.92314 4.17379L4.1804 4.87146C5.01294 6.24675 6.22524 7.38548 7.6894 8.1675L8.43213 7.46984C8.59114 7.32214 8.7919 7.22035 9.0106 7.17654C9.22931 7.13273 9.45681 7.14872 9.66613 7.22263C10.1967 7.40861 10.748 7.53761 11.3095 7.60717C11.5936 7.64482 11.8531 7.77923 12.0385 7.98484C12.224 8.19045 12.3225 8.45292 12.3154 8.72233Z" stroke="white" stroke-linecap="round" stroke-linejoin="round"/>
</svg>
