<svg width="66" height="12" viewBox="0 0 66 12" fill="none" xmlns="http://www.w3.org/2000/svg">
<path fill-rule="evenodd" clip-rule="evenodd" d="M5.4579 0.549805L7.03297 4.28668L10.9003 4.72203L8.00476 7.45088L8.80576 11.4501L5.44131 9.39964L2.06902 11.4362L2.88516 7.44L0 4.6993L3.86877 4.28006L5.4579 0.549805Z" fill="#FFB800" fill-opacity="0.8"/>
<path fill-rule="evenodd" clip-rule="evenodd" d="M19.0833 0.549805L20.6584 4.28668L24.5258 4.72203L21.6302 7.45088L22.4312 11.4501L19.0667 9.39964L15.6945 11.4362L16.5106 7.44L13.6254 4.6993L17.4942 4.28006L19.0833 0.549805Z" fill="#FFB800" fill-opacity="0.8"/>
<path fill-rule="evenodd" clip-rule="evenodd" d="M32.7088 0.549805L34.2838 4.28668L38.1512 4.72203L35.2556 7.45088L36.0566 11.4501L32.6922 9.39964L29.3199 11.4362L30.136 7.44L27.2509 4.6993L31.1196 4.28006L32.7088 0.549805Z" fill="#FFB800" fill-opacity="0.8"/>
<path fill-rule="evenodd" clip-rule="evenodd" d="M46.3342 0.549805L47.9092 4.28668L51.7766 4.72203L48.881 7.45088L49.682 11.4501L46.3176 9.39964L42.9453 11.4362L43.7614 7.44L40.8763 4.6993L44.745 4.28006L46.3342 0.549805Z" fill="#FFB800" fill-opacity="0.8"/>
<path fill-rule="evenodd" clip-rule="evenodd" d="M59.9596 0.549805L61.5347 4.28668L65.402 4.72203L62.5065 7.45088L63.3075 11.4501L59.943 9.39964L56.5707 11.4362L57.3869 7.44L54.5017 4.6993L58.3705 4.28006L59.9596 0.549805Z" fill="#FFB800" fill-opacity="0.8"/>
</svg>
