<svg width="68" height="74" viewBox="0 0 68 74" fill="none" xmlns="http://www.w3.org/2000/svg">
<path d="M20.7633 25.5703C21.9688 26.7759 21.9688 28.7276 20.7633 29.9301C19.5577 31.1357 17.6059 31.1357 16.4034 29.9301C15.1978 28.7245 15.1978 26.7728 16.4034 25.5703C17.609 24.3647 19.5608 24.3647 20.7633 25.5703ZM65.8046 41.5975L64.488 42.9572C65.2157 45.4701 64.5928 48.2914 62.6164 50.2678L41.7546 71.8111C40.3363 73.2294 38.477 74.0002 36.4975 74.0002C34.518 74.0002 32.6588 73.2294 31.2589 71.8295L0.175842 40.7465L3.29309 12.5494L31.5148 8.68904L62.6164 39.7875C62.7274 39.8985 62.8323 40.0126 62.934 40.1267L63.6093 39.4299C64.4418 38.6005 64.8888 37.512 64.8888 36.3527C64.8888 35.1934 64.4387 34.105 63.6278 33.294L33.6084 3.27779L8.09076 6.76812L7.67451 3.71254L34.7061 0.015625L65.8077 31.1141C68.6998 34.0032 68.6998 38.7053 65.8077 41.5944L65.8046 41.5975ZM60.4365 41.9705L30.4203 11.9512L6.09276 15.2781L3.40409 39.6149L33.4388 69.6496C35.0699 71.2838 37.9251 71.2838 39.5562 69.6496L60.418 48.1064C62.1231 46.4013 62.1231 43.6571 60.4365 41.9705Z" fill="black"/>
</svg>
