<svg width="74" height="68" viewBox="0 0 74 68" fill="none" xmlns="http://www.w3.org/2000/svg">
<path d="M0 26.2918C0 25.4408 0.690667 24.7502 1.54167 24.7502H16.9583C17.8093 24.7502 18.5 25.4408 18.5 26.2918C18.5 27.1428 17.8093 27.8335 16.9583 27.8335H1.54167C0.690667 27.8335 0 27.1428 0 26.2918ZM74 29.3752V44.7918C74 49.4045 71.0893 53.3512 67.007 54.8928C67.5497 56.0768 67.8333 57.3533 67.8333 58.6668C67.8333 63.7667 63.6832 67.9168 58.5833 67.9168C53.4835 67.9168 49.3333 63.7667 49.3333 58.6668C49.3333 57.6062 49.5183 56.5671 49.876 55.5835H24.124C24.4817 56.5671 24.6667 57.6062 24.6667 58.6668C24.6667 63.7667 20.5165 67.9168 15.4167 67.9168C10.3168 67.9168 6.16667 63.7667 6.16667 58.6668C6.16667 57.3533 6.45033 56.0768 6.993 54.8928C2.91067 53.3512 0 49.4045 0 44.7918V35.5418C0 34.6908 0.690667 34.0002 1.54167 34.0002C2.39267 34.0002 3.08333 34.6908 3.08333 35.5418V44.7918C3.08333 49.0407 6.53975 52.5002 10.7917 52.5002H49.3333V13.9585C49.3333 8.00766 44.4925 3.16683 38.5417 3.16683C37.6907 3.16683 37 2.47616 37 1.62516C37 0.774163 37.6907 0.0834961 38.5417 0.0834961C46.1914 0.0834961 52.4167 6.30875 52.4167 13.9585V15.5002H60.125C67.7747 15.5002 74 21.7254 74 29.3752ZM52.4167 18.5835V34.0002H70.9167V29.3752C70.9167 23.4243 66.0758 18.5835 60.125 18.5835H52.4167ZM20.7292 55.5835H10.7917C10.5666 55.5835 10.3415 55.5742 10.1164 55.5619C9.546 56.5147 9.25 57.5723 9.25 58.6668C9.25 62.0677 12.0157 64.8335 15.4167 64.8335C18.8176 64.8335 21.5833 62.0677 21.5833 58.6668C21.5833 57.5815 21.2904 56.5301 20.7292 55.5835ZM63.8836 55.5619C63.6616 55.5773 63.4365 55.5835 63.2083 55.5835H53.2708C52.7096 56.5301 52.4167 57.5815 52.4167 58.6668C52.4167 62.0677 55.1824 64.8335 58.5833 64.8335C61.9842 64.8335 64.75 62.0677 64.75 58.6668C64.75 57.5723 64.4509 56.5147 63.8836 55.5619ZM70.9167 44.7918V37.0835H52.4167V52.5002H63.2083C67.4603 52.5002 70.9167 49.0407 70.9167 44.7918ZM1.54167 3.16683H29.2917C30.1427 3.16683 30.8333 2.47616 30.8333 1.62516C30.8333 0.774163 30.1427 0.0834961 29.2917 0.0834961H1.54167C0.690667 0.0834961 0 0.774163 0 1.62516C0 2.47616 0.690667 3.16683 1.54167 3.16683ZM1.54167 15.5002H23.125C23.976 15.5002 24.6667 14.8095 24.6667 13.9585C24.6667 13.1075 23.976 12.4168 23.125 12.4168H1.54167C0.690667 12.4168 0 13.1075 0 13.9585C0 14.8095 0.690667 15.5002 1.54167 15.5002Z" fill="black"/>
</svg>
